<mxfile host="4668eb34-2726-464e-a363-e477418857d8" modified="2020-09-24T21:20:52.692Z" agent="5.0 (X11; Linux x86_64) AppleWebKit/537.36 (KHTML, like Gecko) Code/1.49.0 Chrome/83.0.4103.122 Electron/9.2.1 Safari/537.36" etag="pFv9ON9eitE7L4D98MF0" version="13.1.3">
    <diagram id="6hGFLwfOUW9BJ-s0fimq" name="Page-1">
        <mxGraphModel dx="1643" dy="506" grid="1" gridSize="10" guides="1" tooltips="1" connect="1" arrows="1" fold="1" page="0" pageScale="1" pageWidth="827" pageHeight="1169" math="0" shadow="0">
            <root>
                <mxCell id="0"/>
                <mxCell id="1" parent="0"/>
                <mxCell id="12" value="" style="aspect=fixed;html=1;points=[];align=center;image;fontSize=12;image=img/lib/mscae/Docker.svg;" parent="1" vertex="1">
                    <mxGeometry x="680" y="330" width="128.05" height="105" as="geometry"/>
                </mxCell>
                <mxCell id="5" value="EC2&amp;nbsp; Spot Agent" style="points=[[0,0],[0.25,0],[0.5,0],[0.75,0],[1,0],[1,0.25],[1,0.5],[1,0.75],[1,1],[0.75,1],[0.5,1],[0.25,1],[0,1],[0,0.75],[0,0.5],[0,0.25]];outlineConnect=0;gradientColor=none;html=1;whiteSpace=wrap;fontSize=12;fontStyle=0;shape=mxgraph.aws4.group;grIcon=mxgraph.aws4.group_ec2_instance_contents;strokeColor=#D86613;fillColor=none;verticalAlign=top;align=left;spacingLeft=30;fontColor=#D86613;dashed=0;" parent="1" vertex="1">
                    <mxGeometry x="-30" y="120" width="600" height="465" as="geometry"/>
                </mxCell>
                <mxCell id="3" value="" style="aspect=fixed;html=1;points=[];align=center;image;fontSize=12;image=img/lib/mscae/Docker.svg;" parent="1" vertex="1">
                    <mxGeometry x="380" y="420" width="128.05" height="105" as="geometry"/>
                </mxCell>
                <mxCell id="4" value="minikube" style="aspect=fixed;html=1;points=[];align=center;image;fontSize=12;image=img/lib/mscae/Kubernetes.svg;" parent="1" vertex="1">
                    <mxGeometry x="100" y="400" width="102.08" height="98" as="geometry"/>
                </mxCell>
                <mxCell id="8" value="ssh" style="edgeStyle=orthogonalEdgeStyle;rounded=0;orthogonalLoop=1;jettySize=auto;html=1;entryX=1;entryY=0.443;entryDx=0;entryDy=0;entryPerimeter=0;" parent="1" source="6" target="5" edge="1">
                    <mxGeometry relative="1" as="geometry"/>
                </mxCell>
                <mxCell id="9" value="API call" style="edgeStyle=orthogonalEdgeStyle;rounded=0;orthogonalLoop=1;jettySize=auto;html=1;" parent="1" source="6" target="3" edge="1">
                    <mxGeometry relative="1" as="geometry">
                        <Array as="points">
                            <mxPoint x="741" y="490"/>
                        </Array>
                    </mxGeometry>
                </mxCell>
                <mxCell id="10" value="kubectl&amp;nbsp;&amp;nbsp;" style="edgeStyle=orthogonalEdgeStyle;rounded=0;orthogonalLoop=1;jettySize=auto;html=1;entryX=0.421;entryY=0.99;entryDx=0;entryDy=0;entryPerimeter=0;" parent="1" source="6" target="4" edge="1">
                    <mxGeometry relative="1" as="geometry">
                        <Array as="points">
                            <mxPoint x="741" y="550"/>
                            <mxPoint x="143" y="550"/>
                        </Array>
                    </mxGeometry>
                </mxCell>
                <mxCell id="6" value="" style="shape=image;verticalLabelPosition=bottom;verticalAlign=top;imageAspect=0;aspect=fixed;image=data:image/svg+xml,PHN2ZyB4bWxuczpkYz0iaHR0cHM6Ly9wdXJsLm9yZy9kYy9lbGVtZW50cy8xLjEvIiB4bWxuczpjYz0iaHR0cHM6Ly9jcmVhdGl2ZWNvbW1vbnMub3JnL25zIyIgeG1sbnM6cmRmPSJodHRwOi8vd3d3LnczLm9yZy8xOTk5LzAyLzIyLXJkZi1zeW50YXgtbnMjIiB4bWxuczpzdmc9Imh0dHA6Ly93d3cudzMub3JnLzIwMDAvc3ZnIiB4bWxucz0iaHR0cDovL3d3dy53My5vcmcvMjAwMC9zdmciIHhtbG5zOnNvZGlwb2RpPSJodHRwczovL3NvZGlwb2RpLnNvdXJjZWZvcmdlLm5ldC9EVEQvc29kaXBvZGktMC5kdGQiIHhtbG5zOmlua3NjYXBlPSJodHRwczovL3d3dy5pbmtzY2FwZS5vcmcvbmFtZXNwYWNlcy9pbmtzY2FwZSIgaWQ9InN2ZzIiIHZlcnNpb249IjEuMSIgaW5rc2NhcGU6dmVyc2lvbj0iMC40OC4wIHI5NjU0IiB3aWR0aD0iMjI2IiBoZWlnaHQ9IjMxMiIgeG1sOnNwYWNlPSJwcmVzZXJ2ZSIgc29kaXBvZGk6ZG9jbmFtZT0ibG9nby5zdmciIHZpZXdCb3g9IjAgMCAyMjYgMzEyIj48bWV0YWRhdGEgaWQ9Im1ldGFkYXRhOCI+PHJkZjpSREY+PGNjOldvcmsgcmRmOmFib3V0PSIiPjxkYzpmb3JtYXQ+aW1hZ2Uvc3ZnK3htbDwvZGM6Zm9ybWF0PjxkYzp0eXBlIHJkZjpyZXNvdXJjZT0iaHR0cHM6Ly9wdXJsLm9yZy9kYy9kY21pdHlwZS9TdGlsbEltYWdlIi8+PGRjOnRpdGxlLz48L2NjOldvcms+PC9yZGY6UkRGPjwvbWV0YWRhdGE+PGRlZnMgaWQ9ImRlZnM2Ij48Y2xpcFBhdGggY2xpcFBhdGhVbml0cz0idXNlclNwYWNlT25Vc2UiIGlkPSJjbGlwUGF0aDE4Ij48cGF0aCBkPSJNIDAsMjQ5NC44NCAwLDAgbCAxODA0LjM0LDAgMCwyNDk0Ljg0IC0xODA0LjM0LDAgeiIgaWQ9InBhdGgyMCIgaW5rc2NhcGU6Y29ubmVjdG9yLWN1cnZhdHVyZT0iMCIvPjwvY2xpcFBhdGg+PC9kZWZzPjxzb2RpcG9kaTpuYW1lZHZpZXcgcGFnZWNvbG9yPSIjZmZmZmZmIiBib3JkZXJjb2xvcj0iIzY2NjY2NiIgYm9yZGVyb3BhY2l0eT0iMSIgb2JqZWN0dG9sZXJhbmNlPSIxMCIgZ3JpZHRvbGVyYW5jZT0iMTAiIGd1aWRldG9sZXJhbmNlPSIxMCIgaW5rc2NhcGU6cGFnZW9wYWNpdHk9IjAiIGlua3NjYXBlOnBhZ2VzaGFkb3c9IjIiIGlua3NjYXBlOndpbmRvdy13aWR0aD0iMTUwMCIgaW5rc2NhcGU6d2luZG93LWhlaWdodD0iODQ0IiBpZD0ibmFtZWR2aWV3NCIgc2hvd2dyaWQ9ImZhbHNlIiBpbmtzY2FwZTp6b29tPSIxIiBpbmtzY2FwZTpjeD0iLTY1Ljg1OTExNiIgaW5rc2NhcGU6Y3k9IjE3Mi41MzA3NiIgaW5rc2NhcGU6d2luZG93LXg9IjIxODkiIGlua3NjYXBlOndpbmRvdy15PSI0OTYiIGlua3NjYXBlOndpbmRvdy1tYXhpbWl6ZWQ9IjAiIGlua3NjYXBlOmN1cnJlbnQtbGF5ZXI9ImcxMCIvPjxnIGlkPSJnMTAiIGlua3NjYXBlOmdyb3VwbW9kZT0ibGF5ZXIiIGlua3NjYXBlOmxhYmVsPSJpbmtfZXh0X1hYWFhYWCIgdHJhbnNmb3JtPSJtYXRyaXgoMS4yNSwwLDAsLTEuMjUsMCwzMTIpIj48ZyBpZD0iZzMzOTMiPjxwYXRoIGQ9Im0gMTc3LjcxOCwxMjkuMjY0IGMgMCwtNDkuNDI4OCAtMzkuMTc1LC04OS40OTkyIC04Ny41LC04OS40OTkyIC00OC4zMjQyLDAgLTg3LjQ5OTI1LDQwLjA3MDQgLTg3LjQ5OTI1LDg5LjQ5OTIgMCw0OS40MyAzOS4xNzUwNSw4OS41MDEgODcuNDk5MjUsODkuNTAxIDQ4LjMyNSwwIDg3LjUsLTQwLjA3MSA4Ny41LC04OS41MDEiIHN0eWxlPSJmaWxsOiNkMzM4MzM7ZmlsbC1vcGFjaXR5OjE7ZmlsbC1ydWxlOmV2ZW5vZGQ7c3Ryb2tlOm5vbmUiIGlkPSJwYXRoMjIiIGlua3NjYXBlOmNvbm5lY3Rvci1jdXJ2YXR1cmU9IjAiLz48cGF0aCBkPSJtIDYuMjg0MzgsMTA3LjA5OCBjIDAsMCAtNi4zMzQzOCw5My4zMzMgNzkuNjY2MDIsOTYgbCAtNS45OTk2LDEwIC00Ni42NjY0LC0xNS42NjcgLTEzLjMzMzYsLTE1LjMzMyAtMTEuNjY2NDIsLTIyLjMzNCAtNi42NjcxOSwtMjYgMiwtMTcuMzMzIiBzdHlsZT0iZmlsbDojZWYzZDNhO2ZpbGwtb3BhY2l0eToxO2ZpbGwtcnVsZTpub256ZXJvO3N0cm9rZTpub25lIiBpZD0icGF0aDI0IiBpbmtzY2FwZTpjb25uZWN0b3ItY3VydmF0dXJlPSIwIi8+PHBhdGggZD0iTSAzMC4yODgzLDE5MC4zMTkgQyAxNC45MzYzLDE3NC42MTEgNS40MzYzMywxNTIuOTIzIDUuNDM2MzMsMTI4LjkzIGwgMCwwIGMgMCwtMjMuOTg4IDkuNDk5OTcsLTQ1LjY3ODggMjQuODUxOTcsLTYxLjM4MzkgbCAwLDAgQyA0NS42NDc3LDUxLjg0MSA2Ni44MTUyLDQyLjE1IDkwLjIxNjgsNDIuMTUgbCAwLDAgYyAyMy40MDIyLDAgNDQuNTcxMiw5LjY5MSA1OS45MjkyLDI1LjM5NjEgbCAwLDAgYyAxNS4zNTEsMTUuNzA1MSAyNC44NTMsMzcuMzk1OSAyNC44NTMsNjEuMzgzOSBsIDAsMCBjIDAsMjMuOTkzIC05LjUwMiw0NS42ODEgLTI0Ljg1Myw2MS4zODkgbCAwLDAgYyAtMTUuMzU4LDE1LjcwMiAtMzYuNTI3LDI1LjM5MyAtNTkuOTI5MiwyNS4zOTUgbCAwLDAgQyA2Ni44MTUyLDIxNS43MTIgNDUuNjQ3NywyMDYuMDIxIDMwLjI4ODMsMTkwLjMxOSBsIDAsMCB6IE0gMjYuNDAyMyw2My43NDY5IEMgMTAuMDg2Nyw4MC40MzI4IDAsMTAzLjQ5MyAwLDEyOC45MyBsIDAsMCBjIDAsMjUuNDQxIDEwLjA4NjcsNDguNDk5IDI2LjQwMjMsNjUuMTg2IGwgMCwwIGMgMTYuMzExOCwxNi42OSAzOC44OTE1LDI3LjAzNSA2My44MTQ1LDI3LjAzMiBsIDAsMCBjIDI0LjkyMzIsMC4wMDMgNDcuNTA1MiwtMTAuMzQyIDYzLjgxNDIsLTI3LjAzMiBsIDAsMCBjIDE2LjMxNywtMTYuNjg3IDI2LjQwNSwtMzkuNzQ3IDI2LjQwMywtNjUuMTg2IGwgMCwwIGMgMC4wMDIsLTI1LjQzNyAtMTAuMDg2LC00OC40OTcyIC0yNi40MDMsLTY1LjE4MzEgbCAwLDAgQyAxMzcuNzIyLDQ3LjA1NzggMTE1LjE0LDM2LjcxNDEgOTAuMjE2OCwzNi43MTQxIGwgMCwwIGMgLTI0LjkyMywwIC00Ny41MDI3LDEwLjM0MzcgLTYzLjgxNDUsMjcuMDMyOCBsIDAsMCIgc3R5bGU9ImZpbGw6IzIzMWYyMDtmaWxsLW9wYWNpdHk6MTtmaWxsLXJ1bGU6bm9uemVybztzdHJva2U6bm9uZSIgaWQ9InBhdGgyNiIgaW5rc2NhcGU6Y29ubmVjdG9yLWN1cnZhdHVyZT0iMCIvPjxwYXRoIGQ9Im0gMTI3LjA1MSwxMjguNzY4IC0xMy4zMzQsLTIgLTE4LjAwMDIsLTIgLTExLjY2NzIsLTAuMzMzIC0xMS4zMzI4LDAuMzMzIC04LjY2NzIsMi42NjcgLTcuNjY2OCw4LjMzMyAtNiwxNyAtMS4zMzMyLDMuNjY3IC04LDIuNjY2IC00LjY2NjgsNy42NjcgLTMuMzMzMiwxMSAzLjY2NzIsOS42NjcgOC42NjYsMyA3LC0zLjMzNCAzLjMzNCwtNy4zMzMgNCwwLjY2NyAxLjMzMjgsMS42NjYgLTEuMzMyOCw3LjY2NyAtMC4zMzQsOS42NjcgMiwxMy4zMzMgLTAuMDc4MSw3LjYxNiA2LjA3ODEsOS43MTcgMTAuNjY2OCw3LjY2NyAxOC42NjcyLDggMjAuNjY2MiwtMyAxOCwtMTMgOC4zMzQsLTEzLjMzMyA1LjMzMywtOS42NjcgMS4zMzMsLTI0IC00LC0yMC42NjcgLTcuMzMzLC0xOC4zMzMgLTcsLTkuNjY3IiBzdHlsZT0iZmlsbDojZjBkNmI3O2ZpbGwtb3BhY2l0eToxO2ZpbGwtcnVsZTpldmVub2RkO3N0cm9rZTpub25lIiBpZD0icGF0aDI4IiBpbmtzY2FwZTpjb25uZWN0b3ItY3VydmF0dXJlPSIwIi8+PHBhdGggZD0ibSAxMTUuNzE3LDcxLjEwMiAtNDcuNjY3NCwtMiAwLC04IDQsLTI4IC0yLC0yLjMzNCAtMzMuMzMyOCwxMS4zMzQgLTIuMzM0LDQgLTMuMzMzMiwzNy42NjYgLTcuNjY1NiwyMi42NjcgLTEuNjY3Miw1LjMzMyAyNi42NjYsMTguMzMzIDguMzM0LDMuMzM0IDcuMzMyOCwtOSA2LjMzMzIsLTUuNjY3IDcuMzM0LC0yLjMzMyAzLjMzMjgsLTEgNCwtMTcuMzMzIDMsLTMuNjY2OCA3LjY2NzIsMi42NjY4IC01LjMzNCwtMTAuMzM0IDI5LjAwMDIsLTEzLjY2NiAtMy42NjYsLTIiIHN0eWxlPSJmaWxsOiMzMzUwNjE7ZmlsbC1vcGFjaXR5OjE7ZmlsbC1ydWxlOmV2ZW5vZGQ7c3Ryb2tlOm5vbmUiIGlkPSJwYXRoMzAiIGlua3NjYXBlOmNvbm5lY3Rvci1jdXJ2YXR1cmU9IjAiLz48cGF0aCBkPSJtIDM2LjcxNjgsMTg3LjQzNSA4LjY2NiwzIDcsLTMuMzM0IDMuMzM0LC03LjMzMyA0LDAuNjY3IDEsNCAtMiw3LjY2NiAyLDE4LjMzNCAtMS42NjcyLDEwIDYsNyAxMywxMC4zMzMgLTMuNjY2OCw1IC0xOC4zMzMyLC05IC03LjY2NjgsLTYgLTQuMzMzMiwtOS4zMzMgLTYuNjY2OCwtOSAtMiwtMTAuNjY3IDEuMzM0LC0xMS4zMzMiIHN0eWxlPSJmaWxsOiM2ZDZiNmQ7ZmlsbC1vcGFjaXR5OjE7ZmlsbC1ydWxlOmV2ZW5vZGQ7c3Ryb2tlOm5vbmUiIGlkPSJwYXRoMzIiIGlua3NjYXBlOmNvbm5lY3Rvci1jdXJ2YXR1cmU9IjAiLz48cGF0aCBkPSJtIDUwLjM4MjgsMjE4Ljc2OCBjIDAsMCA1LDEyLjMzMyAyNSwxOC4zMzMgMjAsNiAxLDQuMzM0IDEsNC4zMzQgbCAtMjEuNjY2LC04LjMzNCAtOC4zMzQsLTguMzMzIC0zLjY2NiwtNi42NjcgNy42NjYsMC42NjciIHN0eWxlPSJmaWxsOiNkY2Q5ZDg7ZmlsbC1vcGFjaXR5OjE7ZmlsbC1ydWxlOmV2ZW5vZGQ7c3Ryb2tlOm5vbmUiIGlkPSJwYXRoMzQiIGlua3NjYXBlOmNvbm5lY3Rvci1jdXJ2YXR1cmU9IjAiLz48cGF0aCBkPSJtIDQwLjM4MjgsMTg5Ljc2OCBjIDAsMCAtNywyMy4zMzQgMTkuNjY2OCwyNi42NjcgbCAtMSw0IC0xOC4zMzI4LC00LjMzNCAtNS4zMzQsLTE3LjMzMyAxLjMzNCwtMTEuMzMzIDMuNjY2LDIuMzMzIiBzdHlsZT0iZmlsbDojZGNkOWQ4O2ZpbGwtb3BhY2l0eToxO2ZpbGwtcnVsZTpldmVub2RkO3N0cm9rZTpub25lIiBpZD0icGF0aDM2IiBpbmtzY2FwZTpjb25uZWN0b3ItY3VydmF0dXJlPSIwIi8+PHBhdGggZD0ibSA1MS4wNDk2LDE1OC43NjggNC4zNjQ1LDQuMjI5IGMgMCwwIDEuOTY5OSwtMC4yMjkgMi4zMDI3LC0yLjU2MiAwLjMzMjgsLTIuMzM0IDEuMzMyOCwtMjMuMzM0IDE1LjY2NiwtMzQuNjY4IDEuMzA3NCwtMS4wMzQgLTEwLjY2NiwxLjY2OCAtMTAuNjY2LDEuNjY4IGwgLTEwLjY2NzIsMTYuNjY2IiBzdHlsZT0iZmlsbDojZjdlNGNkO2ZpbGwtb3BhY2l0eToxO2ZpbGwtcnVsZTpldmVub2RkO3N0cm9rZTpub25lIiBpZD0icGF0aDM4IiBpbmtzY2FwZTpjb25uZWN0b3ItY3VydmF0dXJlPSIwIi8+PHBhdGggZD0ibSAxMTIuMzg1LDE2NS4xMDEgYyAwLDAgMC43NzcsMTAuMTA0IDMuNDk4LDkuMzI3IDIuNzIxLC0wLjc3NyAyLjcyMSwtMy40OTggMi43MjEsLTMuNDk4IDAsMCAtNi42MDgsLTQuMjc1IC02LjIxOSwtNS44MjkiIHN0eWxlPSJmaWxsOiNmN2U0Y2Q7ZmlsbC1vcGFjaXR5OjE7ZmlsbC1ydWxlOmV2ZW5vZGQ7c3Ryb2tlOm5vbmUiIGlkPSJwYXRoNDAiIGlua3NjYXBlOmNvbm5lY3Rvci1jdXJ2YXR1cmU9IjAiLz48cGF0aCBkPSJtIDE0MC4wNSwyMDIuMTAxIGMgMCwwIC01LjQ5NCwtMS4xNiAtNiwtNiAtMC41MDYsLTQuODQxIDYsLTEgNywtMC42NjciIHN0eWxlPSJmaWxsOiNmN2U0Y2Q7ZmlsbC1vcGFjaXR5OjE7ZmlsbC1ydWxlOm5vbnplcm87c3Ryb2tlOm5vbmUiIGlkPSJwYXRoNDIiIGlua3NjYXBlOmNvbm5lY3Rvci1jdXJ2YXR1cmU9IjAiLz48cGF0aCBkPSJtIDk5LjcxNjgsMjAxLjc2NyBjIDAsMCAtNy4zMzQsLTEgLTcuMzM0LC01LjY2NiAwLC00LjY2NyA4LjMzNDIsLTQuMzM0IDEwLjY2NzIsLTIuMzM0IiBzdHlsZT0iZmlsbDojZjdlNGNkO2ZpbGwtb3BhY2l0eToxO2ZpbGwtcnVsZTpub256ZXJvO3N0cm9rZTpub25lIiBpZD0icGF0aDQ0IiBpbmtzY2FwZTpjb25uZWN0b3ItY3VydmF0dXJlPSIwIi8+PHBhdGggZD0ibSA1NC4zODI4LDE4MC4xMDEgYyAwLDAgLTEyLjY2NzIsNy42NjcgLTE0LDAuMzMzIC0xLjMzMzIsLTcuMzMzIC00LjMzNCwtMTIuNjY3IDIsLTIwLjMzMyBsIC00LjMzMzIsMS4zMzMgLTQsMTAuMzMzIC0xLjMzMjgsMTAgNy42NjYsOC4wMDEgOC42NjY4LC0wLjY2NyA1LC00IDAuMzMzMiwtNSIgc3R5bGU9ImZpbGw6I2Y3ZTRjZDtmaWxsLW9wYWNpdHk6MTtmaWxsLXJ1bGU6ZXZlbm9kZDtzdHJva2U6bm9uZSIgaWQ9InBhdGg0NiIgaW5rc2NhcGU6Y29ubmVjdG9yLWN1cnZhdHVyZT0iMCIvPjxwYXRoIGQ9Im0gNjAuMzgyOCwyMDEuMTAxIGMgMCwwIDUuNjY2OCwyOS4zMzMgMzQuMzM0LDM1IDIzLjYwMTIsNC42NjUgMzUuOTk5MiwtMSA0MC42NjYyLC02LjMzMyAwLDAgLTIxLDI0Ljk5OSAtNDEuMDAwMiwxNy4zMzMgLTIwLC03LjY2NyAtMzQuNjY2LC0yMS42NjcgLTM0LjMzMzIsLTMwLjY2NiAwLjU2NzYsLTE1LjMyOCAwLjMzMzIsLTE1LjMzNCAwLjMzMzIsLTE1LjMzNCIgc3R5bGU9ImZpbGw6I2Y3ZTRjZDtmaWxsLW9wYWNpdHk6MTtmaWxsLXJ1bGU6ZXZlbm9kZDtzdHJva2U6bm9uZSIgaWQ9InBhdGg0OCIgaW5rc2NhcGU6Y29ubmVjdG9yLWN1cnZhdHVyZT0iMCIvPjxwYXRoIGQ9Im0gMTM3LjcxNywyMjYuNDM1IGMgMCwwIC05LjY2NiwwLjMzMyAtMTAsLTguMzM0IDAsMCAtMC4wMDEsLTEuMzMzIDAuNjY2LC0yLjY2NiAwLDAgNy42NjgsOC42NjcgMTIuMzM0LDQiIHN0eWxlPSJmaWxsOiNmN2U0Y2Q7ZmlsbC1vcGFjaXR5OjE7ZmlsbC1ydWxlOmV2ZW5vZGQ7c3Ryb2tlOm5vbmUiIGlkPSJwYXRoNTAiIGlua3NjYXBlOmNvbm5lY3Rvci1jdXJ2YXR1cmU9IjAiLz48cGF0aCBkPSJtIDk1LjM4ODcsMjE0LjUzMiBjIDAsMCAtMS42NjQxLDEzLjMwMyAtMTMuMDA1OSw1LjU2OSAtNy4zMzMyLC01IC02LjY2NiwtMTIgLTUuMzMzMiwtMTMuMzMzIDEuMzMzMiwtMS4zMzQgMC45NzA3LC00LjAxOSAxLjk4NTYsLTIuMTc2IDEuMDE0NCwxLjg0MyAwLjY4MDQsNy44NDMgNC4zNDc2LDkuNTA5IDMuNjY2OCwxLjY2NyA5LjY3NzcsMy41MjkgMTIuMDA1OSwwLjQzMSIgc3R5bGU9ImZpbGw6I2Y3ZTRjZDtmaWxsLW9wYWNpdHk6MTtmaWxsLXJ1bGU6ZXZlbm9kZDtzdHJva2U6bm9uZSIgaWQ9InBhdGg1MiIgaW5rc2NhcGU6Y29ubmVjdG9yLWN1cnZhdHVyZT0iMCIvPjxwYXRoIGQ9Im0gNjQuMDQ5NiwxMjQuNDM1IC0zMS4zMzI4LC0xNCBjIDAsMCAxMywtNTEuNjY3IDYuMzMyOCwtNjcuNjY3IGwgLTQuNjY2OCwxLjY2NiAtMC4zMzMyLDE5LjY2NzIgLTguNjY1NiwzNy4zMzI4IC0zLjY2NzIsMTAuMzM0IDMyLjY2NiwyMS45OTkgOS42NjY4LC05LjMzMiIgc3R5bGU9ImZpbGw6IzQ5NzI4YjtmaWxsLW9wYWNpdHk6MTtmaWxsLXJ1bGU6ZXZlbm9kZDtzdHJva2U6bm9uZSIgaWQ9InBhdGg1NCIgaW5rc2NhcGU6Y29ubmVjdG9yLWN1cnZhdHVyZT0iMCIvPjxwYXRoIGQ9Im0gNjcuMjcxNSw5NS44NTc4IDQuNDQ1MywtNS40MjM4IDAsLTIwIC01LjMzNCwwIGMgMCwwIC0wLjY2NiwxNCAtMC42NjYsMTUuNjY3MiAwLDEuNjY2OCAwLjY2Niw3LjY2NjggMC42NjYsNy42NjY4IiBzdHlsZT0iZmlsbDojNDk3MjhiO2ZpbGwtb3BhY2l0eToxO2ZpbGwtcnVsZTpldmVub2RkO3N0cm9rZTpub25lIiBpZD0icGF0aDU2IiBpbmtzY2FwZTpjb25uZWN0b3ItY3VydmF0dXJlPSIwIi8+PHBhdGggZD0ibSA2Ny4zODI4LDY3LjQzNCAtMTUsLTAuNjY2IDQuMzM0LC0zIDEwLjY2NiwtMS42NjY4IiBzdHlsZT0iZmlsbDojNDk3MjhiO2ZpbGwtb3BhY2l0eToxO2ZpbGwtcnVsZTpldmVub2RkO3N0cm9rZTpub25lIiBpZD0icGF0aDU4IiBpbmtzY2FwZTpjb25uZWN0b3ItY3VydmF0dXJlPSIwIi8+PHBhdGggZD0ibSAxMTguNzE3LDcwLjc2OCAxMi4zMzMsMC4zMzMyIDMsLTMwLjY2NzIgLTEyLjY2NywtMS42NjYgLTIuNjY2LDMyIiBzdHlsZT0iZmlsbDojMzM1MDYxO2ZpbGwtb3BhY2l0eToxO2ZpbGwtcnVsZTpldmVub2RkO3N0cm9rZTpub25lIiBpZD0icGF0aDYwIiBpbmtzY2FwZTpjb25uZWN0b3ItY3VydmF0dXJlPSIwIi8+PHBhdGggZD0ibSAxMjIuMDUsNzAuNzY4IDE4LjY2NywxIGMgMCwwIDcuNjY2LDE5LjMzMzIgNy42NjYsMjAuMzMzMiAwLDEgNi42NjcsMjcuOTk5OCA2LjY2NywyNy45OTk4IGwgLTE1LDE1LjY2NiAtMywyLjY2NyAtOCwtOCAwLC0zMSAtNywtMjguNjY2IiBzdHlsZT0iZmlsbDojMzM1MDYxO2ZpbGwtb3BhY2l0eToxO2ZpbGwtcnVsZTpldmVub2RkO3N0cm9rZTpub25lIiBpZD0icGF0aDYyIiBpbmtzY2FwZTpjb25uZWN0b3ItY3VydmF0dXJlPSIwIi8+PHBhdGggZD0ibSAxMzAuMzgzLDczLjEwMTIgLTExLjY2NiwtMi4zMzMyIDEuNjY2LC05LjMzNCBjIDQuMzMzLC0yIDExLjY2NywzLjMzNCAxMS42NjcsMy4zMzQiIHN0eWxlPSJmaWxsOiM0OTcyOGI7ZmlsbC1vcGFjaXR5OjE7ZmlsbC1ydWxlOmV2ZW5vZGQ7c3Ryb2tlOm5vbmUiIGlkPSJwYXRoNjQiIGlua3NjYXBlOmNvbm5lY3Rvci1jdXJ2YXR1cmU9IjAiLz48cGF0aCBkPSJtIDEzMC43MTcsMTMxLjQzNCAyMy4zMzMsLTE3LjMzMyAwLjY2Nyw4IC0xNy42NjcsMTYuMzMzIC02LjMzMywtNyIgc3R5bGU9ImZpbGw6IzQ5NzI4YjtmaWxsLW9wYWNpdHk6MTtmaWxsLXJ1bGU6ZXZlbm9kZDtzdHJva2U6bm9uZSIgaWQ9InBhdGg2NiIgaW5rc2NhcGU6Y29ubmVjdG9yLWN1cnZhdHVyZT0iMCIvPjxwYXRoIGQ9Ik0gNzguOTUwOCw1LjA5ODA1IDcyLjA0OTYsMzMuMTAyIDY4LjYxNzIsNTMuNzY0OCA2OC4wNDk2LDY5LjEwMiBsIDMxLjIzNDgsMS42NjI4IDE5LjQzMjYsMC4wMDMyIC0xLjc2NywtMzUuMDAzMiAzLC0yNi45OTk5NiAtMC4zMzMsLTUgLTI1LjMzMjYsLTIgLTE1LjMzMzYsMy4zMzMyMSIgc3R5bGU9ImZpbGw6I2ZmZmZmZjtmaWxsLW9wYWNpdHk6MTtmaWxsLXJ1bGU6ZXZlbm9kZDtzdHJva2U6bm9uZSIgaWQ9InBhdGg2OCIgaW5rc2NhcGU6Y29ubmVjdG9yLWN1cnZhdHVyZT0iMCIvPjxwYXRoIGQ9Im0gMTE0LjM4Myw3MS4xMDEyIGMgMCwwIC0xLjY2NiwtMzQuNjY3MiAzLjMzNCwtNTkuMzMzMiAwLDAgLTEwLC02LjMzNDAyIC0yNC42Njc0LC04LjAwMDAzIGwgMjguMDAwNCwxIDMuMzMzLDIgLTQsNTQuNjY2MDMgLTEsMTEuNjY4IiBzdHlsZT0iZmlsbDojZGNkOWQ4O2ZpbGwtb3BhY2l0eToxO2ZpbGwtcnVsZTpldmVub2RkO3N0cm9rZTpub25lIiBpZD0icGF0aDcwIiBpbmtzY2FwZTpjb25uZWN0b3ItY3VydmF0dXJlPSIwIi8+PHBhdGggZD0ibSAxMzQuNjE4LDQzLjA5OCAxMywzLjY2NjggMjQuNjY2LDEuMzMzMiAzLjY2NywxMS4zMzI5IC02LjY2NywxOS42NjcxIC03LjY2NiwxIC0xMC42NjcsLTMuMzMzMiAtMTAuMjM0LC00Ljk5NjggLTUuNDMzLDAuOTk2OCAtNC4yMzQsLTEuNjYzNiIgc3R5bGU9ImZpbGw6I2ZmZmZmZjtmaWxsLW9wYWNpdHk6MTtmaWxsLXJ1bGU6ZXZlbm9kZDtzdHJva2U6bm9uZSIgaWQ9InBhdGg3MiIgaW5rc2NhcGU6Y29ubmVjdG9yLWN1cnZhdHVyZT0iMCIvPjxwYXRoIGQ9Im0gMTM0LjM4Myw0OS43NjggYyAwLDAgOC42NjYsMy45OTkyIDEwLDMuNjY2IGwgLTMuNjY2LDE4LjMzNCA0LjMzMywxLjY2NiBjIDAsMCAzLC0xNy4zMzI4IDMsLTE5LjMzMjggMCwwIDE4LjY2NiwtMSAyMC4zMzMsLTEgMCwwIDQsNy42NjY4IDMsMTUuNjY2OCBsIDMuNjY3LC0xMC42NjY4IDAuMzMzLC02IC01LjMzMywtOCAtNiwtMS4zMzMyIC0xMCwwLjMzMzIgLTMuMzMzLDQuMzMyOCAtMTEuNjY3LC0xLjY2NiAtMy42NjcsLTEuMzM0IiBzdHlsZT0iZmlsbDojZGNkOWQ4O2ZpbGwtb3BhY2l0eToxO2ZpbGwtcnVsZTpldmVub2RkO3N0cm9rZTpub25lIiBpZD0icGF0aDc0IiBpbmtzY2FwZTpjb25uZWN0b3ItY3VydmF0dXJlPSIwIi8+PHBhdGggZD0ibSAxMjEuMjg0LDczLjQzMDkgLTcuMzMzLDE4LjY2NzEgLTcuNjY3LDExIGMgMCwwIDEuNjY2LDQuNjY3IDQsNC42NjcgMi4zMzQsMCA3LjY2NywwIDcuNjY3LDAgbCA3LjMzMywtMi42NjcgLTAuNjY2LC0xMi4zMzMyIC0zLjMzNCwtMTkuMzMzOSIgc3R5bGU9ImZpbGw6I2ZmZmZmZjtmaWxsLW9wYWNpdHk6MTtmaWxsLXJ1bGU6bm9uemVybztzdHJva2U6bm9uZSIgaWQ9InBhdGg3NiIgaW5rc2NhcGU6Y29ubmVjdG9yLWN1cnZhdHVyZT0iMCIvPjxwYXRoIGQ9Im0gMTIyLjcxNyw3OS43NjggYyAwLDAgLTkuMzM0LDE3Ljk5OTIgLTkuMzM0LDIwLjY2NiAwLDAgMS42NjYsNCA0LDMgMi4zMzQsLTEgNy4zMzQsLTMuNjY2IDcuMzM0LC0zLjY2NiBsIDAsNi4zMzMgLTExLjMzNCwyLjMzNCAtNy42NjYsLTEgMTMsLTMwLjY2NyAyLjY2NiwtMC4zMzQiIHN0eWxlPSJmaWxsOiNkY2Q5ZDg7ZmlsbC1vcGFjaXR5OjE7ZmlsbC1ydWxlOmV2ZW5vZGQ7c3Ryb2tlOm5vbmUiIGlkPSJwYXRoNzgiIGlua3NjYXBlOmNvbm5lY3Rvci1jdXJ2YXR1cmU9IjAiLz48cGF0aCBkPSJtIDgxLjk1MTIsMTIzLjc2NCAtOS4yMzQ0LDEuMDA0IC04LjY2NzIsMi42NjcgMCwtMyA0LjIzNDgsLTQuNjcgMTMuMzMzMiwtNiIgc3R5bGU9ImZpbGw6I2ZmZmZmZjtmaWxsLW9wYWNpdHk6MTtmaWxsLXJ1bGU6bm9uemVybztzdHJva2U6bm9uZSIgaWQ9InBhdGg4MCIgaW5rc2NhcGU6Y29ubmVjdG9yLWN1cnZhdHVyZT0iMCIvPjxwYXRoIGQ9Im0gNjcuMDUwOCwxMjIuNzY1IGMgMCwwIDEwLjMzNCwtNC4zMzQgMTMuNjY3MiwtMy4zMzQgbCAwLjMzMTYsLTMuOTk2IC05LjMzMTYsMS45OTYgLTUuNjY3Miw0IDEsMS4zMzQiIHN0eWxlPSJmaWxsOiNkY2Q5ZDg7ZmlsbC1vcGFjaXR5OjE7ZmlsbC1ydWxlOmV2ZW5vZGQ7c3Ryb2tlOm5vbmUiIGlkPSJwYXRoODIiIGlua3NjYXBlOmNvbm5lY3Rvci1jdXJ2YXR1cmU9IjAiLz48cGF0aCBkPSJtIDEzNC41ODIsMTA2LjYzIGMgLTUuNjU2LDAuMTY2IC0xMC43NjYsMC44MzggLTE1LjI0LDIuMSAwLjMwNCwxLjgzNCAtMC4yNjUsMy42MzQgMC4xOTIsNC45NTUgMS4yNDcsMC44OTggMy4zMzcsMC44ODQgNS4yMjIsMS4wOTUgLTEuNjMsMC44MDEgLTMuOTIsMS4xMTggLTUuODAxLDAuNjU1IC0wLjA0NCwxLjI3MyAtMC42MTUsMi4wNjIgLTAuOTYxLDMuMDU4IDMuMTgsMS4xMzUgMTAuNjg3LDguNTc2IDE0LjkxLDYuMTEyIDIuMDEyLC0xLjE3MiAyLjg2NywtNy44NjYgMy4wMjMsLTExLjEyMSAwLjEzLC0yLjcgLTAuMjQ1LC01LjQyNCAtMS4zNDUsLTYuODU0IiBzdHlsZT0iZmlsbDojZDMzODMzO2ZpbGwtb3BhY2l0eToxO2ZpbGwtcnVsZTpldmVub2RkO3N0cm9rZTpub25lIiBpZD0icGF0aDg0IiBpbmtzY2FwZTpjb25uZWN0b3ItY3VydmF0dXJlPSIwIi8+PHBhdGggZD0ibSAxMzQuNTgyLDEwNi42MyBjIC01LjY1NiwwLjE2NiAtMTAuNzY2LDAuODM4IC0xNS4yNCwyLjEgMC4zMDQsMS44MzQgLTAuMjY1LDMuNjM0IDAuMTkyLDQuOTU1IDEuMjQ3LDAuODk4IDMuMzM3LDAuODg0IDUuMjIyLDEuMDk1IC0xLjYzLDAuODAxIC0zLjkyLDEuMTE4IC01LjgwMSwwLjY1NSAtMC4wNDQsMS4yNzMgLTAuNjE1LDIuMDYyIC0wLjk2MSwzLjA1OCAzLjE4LDEuMTM1IDEwLjY4Nyw4LjU3NiAxNC45MSw2LjExMiAyLjAxMiwtMS4xNzIgMi44NjcsLTcuODY2IDMuMDIzLC0xMS4xMjEgMC4xMywtMi43IC0wLjI0NSwtNS40MjQgLTEuMzQ1LC02Ljg1NCB6IiBzdHlsZT0iZmlsbDpub25lO3N0cm9rZTojZDMzODMzO3N0cm9rZS13aWR0aDoyO3N0cm9rZS1saW5lY2FwOmJ1dHQ7c3Ryb2tlLWxpbmVqb2luOm1pdGVyO3N0cm9rZS1taXRlcmxpbWl0OjQ7c3Ryb2tlLW9wYWNpdHk6MTtzdHJva2UtZGFzaGFycmF5Om5vbmUiIGlkPSJwYXRoODYiIGlua3NjYXBlOmNvbm5lY3Rvci1jdXJ2YXR1cmU9IjAiLz48cGF0aCBkPSJtIDEwNy41MzUsMTE1Ljg3NiBjIC0wLjAxNSwtMC40MjggLTAuMDMzLC0wLjg1OSAtMC4wNSwtMS4yOTEgLTEuNzY2LC0xLjE2IC00LjYxNywtMS4xNDYgLTYuNTU1LC0yLjEyMSAyLjg1NywtMC4xMjUgNS4xMDYsLTAuODEzIDcuMDUyLC0xLjc4MyAtMC4wNDMsLTEuMDc4IC0wLjA4NCwtMi4xNTUgLTAuMTI2LC0zLjIzMyAtMy4yMzcsLTIuMjE2IC02LjE5NCwtNS41MTYgLTEwLjAwNTIsLTcuNTk0MSAtMS44MDIsLTAuOTgyOCAtOC4xMjYyLC0zLjUxMTcgLTEwLjA0MzQsLTMuMDY0OCAtMS4wODQ3LDAuMjUxOSAtMS4xODI0LDEuNTk4IC0xLjYxNiwyLjg2NjggLTAuOTIzOCwyLjcxNzEgLTMuMDUwOCw3LjA0MjEgLTMuMjM2MywxMS4xMzIxIC0wLjIzNjMsNS4xNjYgLTAuNzU3OCwxMy44MjQgNC44MDk0LDEyLjc2IDQuNDkxNCwtMC44NTcgOS43MTUyLC0yLjkyNiAxMy4xOTI1LC00LjgyNiAyLjEyNSwtMS4xNjIgMy4zNTQsLTIuNTk4IDYuNTc4LC0yLjg0NiIgc3R5bGU9ImZpbGw6I2QzMzgzMztmaWxsLW9wYWNpdHk6MTtmaWxsLXJ1bGU6ZXZlbm9kZDtzdHJva2U6bm9uZSIgaWQ9InBhdGg4OCIgaW5rc2NhcGU6Y29ubmVjdG9yLWN1cnZhdHVyZT0iMCIvPjxwYXRoIGQ9Im0gMTA3LjUzNSwxMTUuODc2IGMgLTAuMDE1LC0wLjQyOCAtMC4wMzMsLTAuODU5IC0wLjA1LC0xLjI5MSAtMS43NjYsLTEuMTYgLTQuNjE3LC0xLjE0NiAtNi41NTUsLTIuMTIxIDIuODU3LC0wLjEyNSA1LjEwNiwtMC44MTMgNy4wNTIsLTEuNzgzIC0wLjA0MywtMS4wNzggLTAuMDg0LC0yLjE1NSAtMC4xMjYsLTMuMjMzIC0zLjIzNywtMi4yMTYgLTYuMTk0LC01LjUxNiAtMTAuMDA1MiwtNy41OTQxIC0xLjgwMiwtMC45ODI4IC04LjEyNjIsLTMuNTExNyAtMTAuMDQzNCwtMy4wNjQ4IC0xLjA4NDcsMC4yNTE5IC0xLjE4MjQsMS41OTggLTEuNjE2LDIuODY2OCAtMC45MjM4LDIuNzE3MSAtMy4wNTA4LDcuMDQyMSAtMy4yMzYzLDExLjEzMjEgLTAuMjM2Myw1LjE2NiAtMC43NTc4LDEzLjgyNCA0LjgwOTQsMTIuNzYgNC40OTE0LC0wLjg1NyA5LjcxNTIsLTIuOTI2IDEzLjE5MjUsLTQuODI2IDIuMTI1LC0xLjE2MiAzLjM1NCwtMi41OTggNi41NzgsLTIuODQ2IHoiIHN0eWxlPSJmaWxsOm5vbmU7c3Ryb2tlOiNkMzM4MzM7c3Ryb2tlLXdpZHRoOjI7c3Ryb2tlLWxpbmVjYXA6YnV0dDtzdHJva2UtbGluZWpvaW46bWl0ZXI7c3Ryb2tlLW1pdGVybGltaXQ6NDtzdHJva2Utb3BhY2l0eToxO3N0cm9rZS1kYXNoYXJyYXk6bm9uZSIgaWQ9InBhdGg5MCIgaW5rc2NhcGU6Y29ubmVjdG9yLWN1cnZhdHVyZT0iMCIvPjxwYXRoIGQ9Im0gMTEwLjc1LDEwOS43MTIgYyAtMC40OTQsMi44MTQgLTEuMDY1LDMuNjE3IC0wLjg0NCw2LjA3MiA3LjUwNSw1LjAwNCA4LjkxNCwtOC41OTUgMC44NDQsLTYuMDcyIiBzdHlsZT0iZmlsbDojZDMzODMzO2ZpbGwtb3BhY2l0eToxO2ZpbGwtcnVsZTpldmVub2RkO3N0cm9rZTpub25lIiBpZD0icGF0aDkyIiBpbmtzY2FwZTpjb25uZWN0b3ItY3VydmF0dXJlPSIwIi8+PHBhdGggZD0ibSAxMTAuNzUsMTA5LjcxMiBjIC0wLjQ5NCwyLjgxNCAtMS4wNjUsMy42MTcgLTAuODQ0LDYuMDcyIDcuNTA1LDUuMDA0IDguOTE0LC04LjU5NSAwLjg0NCwtNi4wNzIgeiIgc3R5bGU9ImZpbGw6bm9uZTtzdHJva2U6I2QzMzgzMztzdHJva2Utd2lkdGg6MjtzdHJva2UtbGluZWNhcDpidXR0O3N0cm9rZS1saW5lam9pbjptaXRlcjtzdHJva2UtbWl0ZXJsaW1pdDo0O3N0cm9rZS1vcGFjaXR5OjE7c3Ryb2tlLWRhc2hhcnJheTpub25lIiBpZD0icGF0aDk0IiBpbmtzY2FwZTpjb25uZWN0b3ItY3VydmF0dXJlPSIwIi8+PHBhdGggZD0ibSAxMjEuNjE3LDEwNy40MzEgYyAwLDAgLTIuMzM0LDMuMzM0IC0wLjY2Nyw0LjMzNCAxLjY2NywxIDMuMzM0LC0wLjAwMSA0LjMzNCwxLjY2NiAxLDEuNjY3IDAsMi42NjcgMC4zMzMsNC42NjcgMC4zMzMsMiAyLjAwMSwyLjMzNCAzLjY2NywyLjY2NyAxLjY2NiwwLjMzMyA2LjMzNCwxIDcsLTAuNjY3IGwgLTIsNiAtNCwxLjMzMyAtMTIuNjY3LC03LjMzMyAtMC42NjcsLTMuNjY3IDAsLTcuMzMzIiBzdHlsZT0iZmlsbDojZWYzZDNhO2ZpbGwtb3BhY2l0eToxO2ZpbGwtcnVsZTpldmVub2RkO3N0cm9rZTpub25lIiBpZD0icGF0aDk2IiBpbmtzY2FwZTpjb25uZWN0b3ItY3VydmF0dXJlPSIwIi8+PHBhdGggZD0ibSA4Ni42MTcyLDk2LjQzMDkgYyAtMC40MDA0LDUuMjAyMSAtMC44MjQyLDEwLjM5NzEgLTEuMjk1NywxNS41OTQxIC0wLjcwNTUsNy43NiAxLjg2NCw2LjQwNiA4LjU5MDYsNi40MDYgMS4wMjc0LDAgNi4zMjU5LC0xLjIyNSA2LjcwNDksLTIgMS44MTgsLTMuNzEzIC0zLjA0LC0yLjg4OCAyLjA5NCwtNS42ODggNC4zMzQsLTIuMzYzIDExLjk5LDEuNDM1IDEwLjIzOSw2LjY4OCAtMC45OCwxLjE2OCAtNS4xMDYsMC4zNjQgLTYuNTg1LDEuMTMxIC0yLjYwNCwxLjM1IC01LjIwOCwyLjcgLTcuODEyMyw0LjA1IC0zLjMxMzIsMS43MTkgLTEwLjk3MDcsNC4yMjUgLTE0LjUwMzEsMS44MjMgLTguOTUwNCwtNi4wODcgMC41NjQ5LC0yMS4yOTYgMy43NTc4LC0yNy42NDU5IiBzdHlsZT0iZmlsbDojZWYzZDNhO2ZpbGwtb3BhY2l0eToxO2ZpbGwtcnVsZTpldmVub2RkO3N0cm9rZTpub25lIiBpZD0icGF0aDk4IiBpbmtzY2FwZTpjb25uZWN0b3ItY3VydmF0dXJlPSIwIi8+PHBhdGggZD0ibSA5NS4zODg3LDIxNC41MzIgYyAtOS4wODUyLDIuMTE2IC0xMy41OTk2LC0zLjgwMiAtMTYuMzUzNSwtOS45NCAtMi40NTksMC41OTYgLTEuNDgwNSwzLjk0IC0wLjg1OTQsNS42NDQgMS42MjYyLDQuNDcyIDguMTc5NywxMC40MjUgMTMuNTM0NCw5LjYxOCAyLjMwNDMsLTAuMzQ3IDUuNDIyNiwtMi40NTQgMy42Nzg1LC01LjMyMiIgc3R5bGU9ImZpbGw6IzIzMWYyMDtmaWxsLW9wYWNpdHk6MTtmaWxsLXJ1bGU6ZXZlbm9kZDtzdHJva2U6bm9uZSIgaWQ9InBhdGgxMDAiIGlua3NjYXBlOmNvbm5lY3Rvci1jdXJ2YXR1cmU9IjAiLz48cGF0aCBkPSJtIDEzOS42NTUsMjA0LjE4NiBjIDAuMTQzLC0wLjAwNiAwLjI4OCwtMC4wMTEgMC40MzEsLTAuMDE3IDIuMDUzLC00LjI2NSAzLjgzLC04Ljc4MyA2LjQyLC0xMi41NDggLTEuNzM1LC00LjA0MSAtMTMuMTM4LC03LjYxNyAtMTIuOTYyLC0wLjM2MSAyLjQ2NiwxLjA3OCA2LjcyMywwLjIyIDguOTA5LDEuNTk3IC0xLjI2NCwzLjQ2OSAtMy4wODgsNi40MjIgLTIuNzk4LDExLjMyOSIgc3R5bGU9ImZpbGw6IzIzMWYyMDtmaWxsLW9wYWNpdHk6MTtmaWxsLXJ1bGU6ZXZlbm9kZDtzdHJva2U6bm9uZSIgaWQ9InBhdGgxMDIiIGlua3NjYXBlOmNvbm5lY3Rvci1jdXJ2YXR1cmU9IjAiLz48cGF0aCBkPSJtIDEwMC4wNCwyMDQuMDc1IGMgMS45NDgsLTMuNTcxIDIuNTgyLC03LjMyMyA1LjM1MSwtMTAuMDIyIDEuMjQ3LC0xLjIxNSAzLjY3MiwtMi42OTYgMi40NywtNi4wNzUgLTAuMjgxLC0wLjc5NyAtMi4zMzQsLTIuNTc0IC0zLjUxOSwtMi45MjMgLTQuMzI5LC0xLjI3OCAtMTQuNDE2MiwtMC4yNjQgLTExLjAwMDIsNS4xMzMgMy41ODAxLC0wLjE2NyA4LjM5MjIsLTIuMzI1IDExLjA2ODIsMC4yNzQgLTIuMDU1LDMuMjg1IC01LjcxODYsOS43ODQgLTQuMzcsMTMuNjEzIiBzdHlsZT0iZmlsbDojMjMxZjIwO2ZpbGwtb3BhY2l0eToxO2ZpbGwtcnVsZTpldmVub2RkO3N0cm9rZTpub25lIiBpZD0icGF0aDEwNCIgaW5rc2NhcGU6Y29ubmVjdG9yLWN1cnZhdHVyZT0iMCIvPjxwYXRoIGQ9Im0gMTM4LjAzLDE2Ny43ODEgYyAtNi41MTgsLTQuMTg3IC0xMy43ODYsLTguNzQgLTI0LjQ2NiwtNy42ODQgLTIuMjgyLDEuOTg0IC0zLjE1Miw2LjM5OSAtMC45MzUsOS4zMTUgMS4xNTQsLTEuOTg0IDAuNDI5LC01LjYzMyAzLjY0NSwtNi4xODIgNi4wNiwtMS4wMzcgMTMuMTEzLDMuNzA3IDE3LjQ3Miw1LjM2NSAyLjcwMyw0LjU1NyAtMC4yMzMsNi4yMzMgLTIuNjY4LDkuMTY2IC00Ljk4NSw2LjAwOSAtMTEuNjcyLDEzLjQ1NyAtMTEuNDI5LDIyLjQ1MyAyLjAxNSwxLjQ2MSAyLjE4OSwtMi4yMyAyLjQ3OCwtMi45MDIgMi42MDMsLTYuMDkyIDkuMTU0LC0xMy44ODMgMTMuOTM1LC0xOS4wOTcgMS4xNzQsLTEuMjg0IDMuMTA3LC0yLjUxNiAzLjMyMiwtMy4zNjUgMC42MiwtMi40NjkgLTEuNjEzLC01LjQyNyAtMS4zNTQsLTcuMDY5IiBzdHlsZT0iZmlsbDojMjMxZjIwO2ZpbGwtb3BhY2l0eToxO2ZpbGwtcnVsZTpldmVub2RkO3N0cm9rZTpub25lIiBpZD0icGF0aDEwNiIgaW5rc2NhcGU6Y29ubmVjdG9yLWN1cnZhdHVyZT0iMCIvPjxwYXRoIGQ9Im0gNTIuMTAxNiwxNzIuMTg5IGMgLTIuMDQzLDEuMTY2IC0yLjUyOTMsNi4zMDIgLTQuOTI3OCw2LjQ0OCAtMy40Mjc3LDAuMjA4IC0yLjgwMjcsLTYuNjYzIC0yLjc4OSwtMTAuNjgxIC0yLjM1OTQsMi4xNDIgLTIuNzc0Myw4LjczNyAtMS4wNDEsMTIuMTI0IC0xLjk3NTQsMC45NyAtMi44NTc1LC0xLjA3IC0zLjk1MzIsLTEuNzg5IDEuNDA4MiwxMC4yMyAxNC45NjQ5LDQuNzQ1IDEyLjcxMSwtNi4xMDIiIHN0eWxlPSJmaWxsOiMyMzFmMjA7ZmlsbC1vcGFjaXR5OjE7ZmlsbC1ydWxlOmV2ZW5vZGQ7c3Ryb2tlOm5vbmUiIGlkPSJwYXRoMTA4IiBpbmtzY2FwZTpjb25uZWN0b3ItY3VydmF0dXJlPSIwIi8+PHBhdGggZD0ibSAxNDIuMTgsMTYzLjUyMSBjIC0zLjAzNCwtNS43NzUgLTcuMzI2LC0xMi4xMzUgLTE2LjIyOSwtMTIuMzIgLTAuMTgxLDEuODY1IC0wLjMyLDQuNzAzIDAuMDEsNS44MjYgNi44MDYsMC42NTQgMTEuMDA4LDQuMTE4IDE2LjIxOSw2LjQ5NCIgc3R5bGU9ImZpbGw6IzIzMWYyMDtmaWxsLW9wYWNpdHk6MTtmaWxsLXJ1bGU6ZXZlbm9kZDtzdHJva2U6bm9uZSIgaWQ9InBhdGgxMTAiIGlua3NjYXBlOmNvbm5lY3Rvci1jdXJ2YXR1cmU9IjAiLz48cGF0aCBkPSJtIDk5LjUyNjYsMTU5Ljc3NyBjIDUuNjc4NCwtMi45ODYgMTYuMTE0NCwtMy4zMDcgMjMuODMyNCwtMy4wODEgMC40MTQsLTEuNjkxIDAuNDA0LC0zLjc4IDAuNDIsLTUuODQyIC05LjkyMSwtMC40OTUgLTIxLjY1MSwxLjk2IC0yNC4yNTI0LDguOTIzIiBzdHlsZT0iZmlsbDojMjMxZjIwO2ZpbGwtb3BhY2l0eToxO2ZpbGwtcnVsZTpldmVub2RkO3N0cm9rZTpub25lIiBpZD0icGF0aDExMiIgaW5rc2NhcGU6Y29ubmVjdG9yLWN1cnZhdHVyZT0iMCIvPjxwYXRoIGQ9Im0gOTguNDQ3MywxNTQuMjA5IGMgMy45MjY3LC05Ljg1OSAxNy40MjI3LC04LjcyNCAyOC44MDM3LC04LjQ1MiAtMC41MDEsLTEuMjggLTEuNTg3LC0yLjc5MiAtMi45MzcsLTMuMzM5IC0zLjY0NywtMS40ODQgLTEzLjcwNiwtMi42MSAtMTguNzY5LDAuMDc5IC0zLjIxMSwxLjcwNyAtNS4yNzQsNS41NjQgLTcuMDMzMyw3LjgyNSAtMC44NDk2LDEuMDkyIC01LjA4MDEsMy44ODEgLTAuMDY0NCwzLjg4NyIgc3R5bGU9ImZpbGw6IzIzMWYyMDtmaWxsLW9wYWNpdHk6MTtmaWxsLXJ1bGU6ZXZlbm9kZDtzdHJva2U6bm9uZSIgaWQ9InBhdGgxMTQiIGlua3NjYXBlOmNvbm5lY3Rvci1jdXJ2YXR1cmU9IjAiLz48cGF0aCBkPSJtIDEzNy41NTYsOTkuODI2MiBjIC00LjYwOCwtNy44OTIyIC05LjAxNywtMTUuOTk4MSAtMTQuNDg0LC0yMi45NTk0IDIuMjkyLDYuNzM5MSAzLjI3MywxOC4wMTg0IDMuNjE5LDI2LjYxNzIgNC43OTUsMi4yNDQgOC45MDEsLTAuNTA1IDEwLjg2NSwtMy42NTc4IiBzdHlsZT0iZmlsbDojODFiMGM0O2ZpbGwtb3BhY2l0eToxO2ZpbGwtcnVsZTpldmVub2RkO3N0cm9rZTpub25lIiBpZD0icGF0aDExNiIgaW5rc2NhcGU6Y29ubmVjdG9yLWN1cnZhdHVyZT0iMCIvPjxwYXRoIGQ9Im0gMTYyLjM1Miw3MS40NjA5IGMgLTUuMTU5LC0xLjAzMjggLTguNzg0LC02LjA0NjggLTEzLjgxNywtNS43MjUgMi43NjYsMy44OTkzIDcuNjEzLDUuNTQzIDEzLjgxNyw1LjcyNSIgc3R5bGU9ImZpbGw6IzIzMWYyMDtmaWxsLW9wYWNpdHk6MTtmaWxsLXJ1bGU6ZXZlbm9kZDtzdHJva2U6bm9uZSIgaWQ9InBhdGgxMTgiIGlua3NjYXBlOmNvbm5lY3Rvci1jdXJ2YXR1cmU9IjAiLz48cGF0aCBkPSJtIDE2NC42MjgsNjMuMzg3MSBjIC00LjIwNSwtMC40NDQxIC05LjE0NCwtMS4xMjUgLTEzLjQwOSwtMC43NzQyIDIuMDE5LDMuMDg0IDkuNzk4LDIuMDE5OSAxMy40MDksMC43NzQyIiBzdHlsZT0iZmlsbDojMjMxZjIwO2ZpbGwtb3BhY2l0eToxO2ZpbGwtcnVsZTpldmVub2RkO3N0cm9rZTpub25lIiBpZD0icGF0aDEyMCIgaW5rc2NhcGU6Y29ubmVjdG9yLWN1cnZhdHVyZT0iMCIvPjxwYXRoIGQ9Im0gMTY2LjA4NSw1Ni40MjYyIGMgLTQuNzI2LC0wLjEwMjQgLTEwLjYsLTAuMDA4MiAtMTUuMDkyLDAuMzY4NyAyLjY1NywyLjg1MzkgMTIuMDI3LDEuMDU5IDE1LjA5MiwtMC4zNjg3IiBzdHlsZT0iZmlsbDojMjMxZjIwO2ZpbGwtb3BhY2l0eToxO2ZpbGwtcnVsZTpldmVub2RkO3N0cm9rZTpub25lIiBpZD0icGF0aDEyMiIgaW5rc2NhcGU6Y29ubmVjdG9yLWN1cnZhdHVyZT0iMCIvPjxwYXRoIGQ9Im0gMTI4LjY2NCwzNy4zNzcgYyAwLjY3OCwtNS45MzUyIDMuMDMxLC0xMS45NDg5IDIuNzM2LC0xOC40NDg5IC0yLjYxMywtMC44ODEyIC00LjExNCwtMS42NTE5IC03LjYxNSwtMS42NDcyIC0wLjI0Nyw1LjUyNDIgLTAuOTg2LDEzLjk2OTEgLTAuNzY1LDE5LjIzNTEgMS43MjIsLTAuMTE0IDQuMjYxLDEuMjMwMSA1LjY0NCwwLjg2MSIgc3R5bGU9ImZpbGw6I2RjZDlkODtmaWxsLW9wYWNpdHk6MTtmaWxsLXJ1bGU6ZXZlbm9kZDtzdHJva2U6bm9uZSIgaWQ9InBhdGgxMjQiIGlua3NjYXBlOmNvbm5lY3Rvci1jdXJ2YXR1cmU9IjAiLz48cGF0aCBkPSJtIDEyMS4wNDUsMTI0Ljg0OSBjIC0yLjM3MywtMS41NDkgLTQuMzk0LC0zLjQ4MyAtNi42NzMsLTUuMTM3IC01LjA1NCwtMC4yNSAtNy44MTIsMC4zNSAtMTEuNTI1LDMuMjUyIDAuMDYxLDAuMjMzIDAuNDM0LDAuMTI5IDAuNDQ4LDAuNDE1IDUuNDEsLTIuNDExIDEyLjI4NywwLjk4MiAxNy43NSwxLjQ3IiBzdHlsZT0iZmlsbDojZjBkNmI3O2ZpbGwtb3BhY2l0eToxO2ZpbGwtcnVsZTpldmVub2RkO3N0cm9rZTpub25lIiBpZD0icGF0aDEyNiIgaW5rc2NhcGU6Y29ubmVjdG9yLWN1cnZhdHVyZT0iMCIvPjxwYXRoIGQ9Im0gOTIuNjQ0NSw4Ny45NzExIGMgMS40ODY0LDYuNDQxIDcuMzEwNiw5Ljc3NjkgMTIuNTk5NSwxMy4zMjM5IDUuNDU5LC02LjkyODIgOC43NzksLTE1LjgzOCAxMi40MzUsLTI0LjQzNiAtOC42MzgsMi42MDM5IC0xNy40NjQsNi44Mjg5IC0yNS4wMzQ1LDExLjExMjEiIHN0eWxlPSJmaWxsOiM4MWIwYzQ7ZmlsbC1vcGFjaXR5OjE7ZmlsbC1ydWxlOmV2ZW5vZGQ7c3Ryb2tlOm5vbmUiIGlkPSJwYXRoMTI4IiBpbmtzY2FwZTpjb25uZWN0b3ItY3VydmF0dXJlPSIwIi8+PHBhdGggZD0ibSAxMjMuMDIsMzYuNTE2IGMgLTAuMjIxLC01LjI2NiAwLjUxOCwtMTMuNzEwOSAwLjc2NSwtMTkuMjM1MSAzLjUwMSwtMC4wMDQ3IDUuMDAyLDAuNzY2IDcuNjE1LDEuNjQ3MiAwLjI5NSw2LjUgLTIuMDU4LDEyLjUxMzcgLTIuNzM2LDE4LjQ0ODkgLTEuMzgzLDAuMzY5MSAtMy45MjIsLTAuOTc1IC01LjY0NCwtMC44NjEgeiBNIDY4LjUwNTksNjYuNDY0OCBDIDcwLjgxNDUsNDUuMjQxOCA3NC4xNTgyLDI3LjQwMTIgODAuMjkxLDguNjA3ODEgOTMuOTAyMyw0LjQ3NSAxMTAuMzExLDQuMTE0ODQgMTIyLjM0Miw3Ljg0NDE0IDEyMC4xMzMsMTguNDUxMiAxMjEuMDk4LDMxLjM2NDggMTE5LjgwNyw0Mi42ODQgYyAtMC45NzMsOC41MDc4IC0wLjQ3NywxNy4wNjggLTEuODExLDI1Ljc0OCAtMTQuNTc4LDMuMDMyOCAtMzUuMTgzNSwwLjcwOSAtNDkuNDkwMSwtMS45NjcyIHogbSA1Mi45MzcxLDEuODM0IGMgLTAuMTIzLC05LjExNDggMC40MDgsLTE4LjEwNTggMS4xMDQsLTI3LjIzMiAzLjUsMC41MjU0IDUuODc1LDAuODc2MiA5LjEyNywxLjU4OTEgLTEuMDU2LDguNzg1OSAtMC45MjYsMTguNjcyMiAtMy4wNzcsMjYuNDQ0MSAtMi40ODYsLTAuMDIzOCAtNC42NzUsMC4wMjg5IC03LjE1NCwtMC44MDEyIHogbSAxNy43NTUsMS40NjkyIGMgLTEuNjYxLDAuMzgwOCAtMy41OTUsMC4wMTQ4IC01LjE4MiwtMC4wMTYgMC43NDYsLTcuNDMwMSAyLjU1NiwtMTUuNjI5IDMuMTkzLC0yMy40MjgyIDIuNDk3LC0wLjA3NzcgMy44MzEsMS4xIDUuODg1LDEuNDk2MSAwLjExLDYuODQ2MSAtMC41OTgsMTYuMjc4MSAtMy44OTYsMjEuOTQ4MSB6IG0gMjYuODg0LC0yNC41NjI5IGMgNS4yMDUsMS4yNjQgOC40NzgsNy42MzkgNy4wMjIsMTQuMTg1OSAtMC45NzcsNC40IC0yLjcxNywxMi42ODUyIC00LjU3OSwxNS41IC0xLjM3NiwyLjA4MiAtNS4xMDcsNC44MDc4IC04LjA4NiwyLjkgLTQuODQ2LC0zLjEwMzEgLTEzLjM4MywtNC4wMDM5IC0xNi45MTcsLTcuNzYwMSAxLjc3MiwtNS45IDIuMzIyLC0xNC4wMDM5IDMuMDUzLC0yMS40Nzk3IDYuMDU0LC0wLjM3NzQgMTMuNTAzLDEuNjY2IDE4LjUzOCwtMC41MDI0IC0zLjUxNSwtMS4xMzg2IC04LjA3NiwtMS4xNDc2IC0xMS4xMTMsLTIuODA3IDIuNDgyLC0xLjE5ODggOC4yOTMsLTAuOTU2NiAxMi4wODIsLTAuMDM2NyB6IE0gMTE3LjY3OSw3Ni44NTkgYyAtMy42NTYsOC41OTggLTYuOTc2LDE3LjUwNzggLTEyLjQzNSwyNC40MzYgQyA5OS45NTUxLDk3Ljc0OCA5NC4xMzA5LDk0LjQxMjEgOTIuNjQ0NSw4Ny45NzExIDEwMC4yMTUsODMuNjg3OSAxMDkuMDQxLDc5LjQ2MjkgMTE3LjY3OSw3Ni44NTkgeiBtIDkuMDEyLDI2LjYyNSBjIC0wLjM0NiwtOC41OTg4IC0xLjMyNywtMTkuODc4MSAtMy42MTksLTI2LjYxNzIgNS40NjcsNi45NjEzIDkuODc2LDE1LjA2NzIgMTQuNDg0LDIyLjk1OTQgLTEuOTY0LDMuMTUyOCAtNi4wNyw1LjkwMTggLTEwLjg2NSwzLjY1NzggeiBtIC0xMC4yMTYsMy42MyBjIC0yLjA3MSwwLjIyMyAtMy44MjksLTIuMzgxIC02LjUyMiwtMS4yNTUgLTAuNjE3LC0wLjY4MiAtMS4xNzgsLTEuNDIxIC0xLjgwNywtMi4wODcgNS45NDgsLTcuMTY4MSA4LjY1MSwtMTcuMzM4IDEzLjI0NSwtMjUuNzYxOCAyLjQ2NSw4LjA5MTggMi4xODEsMTYuOTU3IDIuNzI0LDI1Ljc4ODggLTMuMzg3LC0wLjIxNSAtNS4yNjYsMy4wNjMgLTcuNjQsMy4zMTUgeiBtIC02LjU2OSw4LjY3IGMgLTAuMjIxLC0yLjQ1NSAwLjM1LC0zLjI1OCAwLjg0NCwtNi4wNzIgOC4wNywtMi41MjMgNi42NjEsMTEuMDc2IC0wLjg0NCw2LjA3MiB6IG0gLTguOTQ5LDIuOTM4IGMgLTMuNDc3MywxLjkgLTguNzAxMSwzLjk2OSAtMTMuMTkyNSw0LjgyNiAtNS41NjcyLDEuMDY1IC01LjA0NTcsLTcuNTk0IC00LjgwOTQsLTEyLjc2IDAuMTg1NSwtNC4wOSAyLjMxMjUsLTguNDE1IDMuMjM2MywtMTEuMTMyMSAwLjQzMzYsLTEuMjY4OCAwLjUzMTMsLTIuNjE0OSAxLjYxNiwtMi44NjY4IDEuOTE3MiwtMC40NDY5IDguMjQxNCwyLjA4MiAxMC4wNDM0LDMuMDY0OCAzLjgxMTIsMi4wNzgxIDYuNzY4Miw1LjM3ODEgMTAuMDA1Miw3LjU5NDEgMC4wNDIsMS4wNzggMC4wODMsMi4xNTUgMC4xMjYsMy4yMzMgLTEuOTQ2LDAuOTcgLTQuMTk1LDEuNjU4IC03LjA1MiwxLjc4MyAxLjkzOCwwLjk3NSA0Ljc4OSwwLjk2MSA2LjU1NSwyLjEyMSAwLjAxNywwLjQzMiAwLjAzNSwwLjg2MyAwLjA1LDEuMjkxIC0zLjIyNCwwLjI0OCAtNC40NTMsMS42ODQgLTYuNTc4LDIuODQ2IHogbSAtMzMuMjEzNiw2LjAzMyBjIC0yLjg4NiwtMi45MyA4LjA5NDUsLTYuOTI0IDExLjU5MDYsLTcuMTM5IC0wLjAxOTUsMS44NTQgMS4wNTY2LDMuNjAyIDAuODM5OCw0LjkzMiAtNC4xNTIzLDAuNzI5IC05LjYwOTMsMC4yNDggLTEyLjQzMDQsMi4yMDcgeiBtIDM1LjU1MTYsLTEuMzc2IGMgLTAuMDE0LC0wLjI4NiAtMC4zODcsLTAuMTgyIC0wLjQ0OCwtMC40MTUgMy43MTMsLTIuOTAyIDYuNDcxLC0zLjUwMiAxMS41MjUsLTMuMjUyIDIuMjc5LDEuNjU0IDQuMywzLjU4OCA2LjY3Myw1LjEzNyAtNS40NjMsLTAuNDg4IC0xMi4zNCwtMy44ODEgLTE3Ljc1LC0xLjQ3IHogbSAzMi42MzIsLTkuODk1IGMgLTAuMTU2LDMuMjU1IC0xLjAxMSw5Ljk0OSAtMy4wMjMsMTEuMTIxIC00LjIyMywyLjQ2NSAtMTEuNzMsLTQuOTc3IC0xNC45MSwtNi4xMTIgMC4zNDYsLTAuOTk2IDAuOTE3LC0xLjc4NSAwLjk2MSwtMy4wNTggMS44ODEsMC40NjMgNC4xNzEsMC4xNDYgNS44MDEsLTAuNjU1IC0xLjg4NSwtMC4yMTEgLTMuOTc1LC0wLjE5NyAtNS4yMjIsLTEuMDk1IC0wLjQ1NywtMS4zMjEgMC4xMTIsLTMuMTIxIC0wLjE5MiwtNC45NTUgNC40NzQsLTEuMjYyIDkuNTg0LC0xLjkzNCAxNS4yNCwtMi4xIDEuMSwxLjQzIDEuNDc1LDQuMTU0IDEuMzQ1LDYuODU0IHogbSAtNzMuMDQyMiw4LjQzNyBjIC0wLjkwNjMsMC42NDYgLTcuMDM3MSw4LjYyMyAtNy44NzcsOC4yOTIgQyA0My45MTQxLDEyNS44MzggMzMuNTQxLDExOC4yNzMgMjQuMjcxNSwxMTEuMTE4IDMzLjEwOTQsOTIuMTUzOSAzNi42NzcsNjguOTE5OSAzNy4zMDc0LDQ2LjUyNjIgNDcuNDMxNiw0MS43OTEgNTYuMzI0MiwzNC45NjQ4IDcwLjA2MjUsMzQuMjUyIDY4LjQ3MjcsNDUuNSA2Ny4wMjE1LDU1LjUzNTIgNjYuMTE5MSw2Ni4xMjUgYyAtMy40NTE5LDEuNDU1MSAtOC40MDQzLC0wLjA2NiAtMTEuNjM0NywwLjQ1MTIgLTAuMDI3NCwzLjg5MjkgNC45MzM2LDEuNzA0NyA1LjM0NjgsNC4zMjI2IDAuMzExNCwxLjk4MDEgLTIuNzI5NiwyLjEzMDEgLTEuNzM5NCw1LjI0ODEgMi41MjU0LC0wLjkxOCAzLjg1MTYsLTIuOTQ1NyA2LjU0NDksLTMuNzA3MSAyLjQ2MSw1LjM4NCAtMC4wMzQ0LDE0LjkxMDIgMC4zMjAzLDE5LjQxMDIgMC4wNjcyLDAuODQ0OSAwLjQyMTksNC42ODA5IDIuMzE0NSw0LjAwNzggMS42NzUsLTAuNTk1NyAtMC4wOTU3LC0xMC4yMDE5IDAuMDg3OSwtMTQuNDYwOSAwLjE2NzIsLTMuOTIzOSAtMC40NzM5LC03LjcyMDcgMS4xMTUyLC0xMC4xODQgMTMuMjc1NCwxLjgwNyAyNi43NjU2LDIuOTc1IDQxLjEyOTQsMy4zNjkxIC0zLjE2LDEuMzU1OSAtNi45MTQsMi42MzkxIC0xMS4wMjk4LDQuOTU5IC0yLjIzMTIsMS4yNTc4IC05LjI2NDQsMy44NzUgLTkuOTA4Miw1Ljk5NDIgLTEuMDI3MywzLjM3NjkgMi42OTUzLDUuMTc1NyAzLjMzMiw4LjA3MDcgLTYuNzAxMSwtMy42NTQ3IC04LjAwODUsMy41MDMxIC05LjU5MzcsOC41NzQxIC0xLjQzNjMsNC41OTMgLTIuMjUzOSw4LjAyNCAtMi42MDYzLDEwLjY3MyAtNS43NzI2LDIuNzUyIC0xMS45NDQ1LDUuNTM5IC0xNi45MTMyLDkuMDY4IHogbSA2Ny4xNzkyLDcuMzI3IGMgOS4yNDMsNC40ODIgMTAuOTA5LC0xNi43NTEgNy4yODYsLTIzLjU5MSAwLjU2LC0yLjA0IDIuNDg2LC0yLjgyMSAzLjI3MiwtNC42NTUgLTUuMTU4LC05LjIzOTkgLTEwLjg4NywtMTcuODY0OSAtMTYuMTUsLTI2Ljk5NjEgMy45MTUsMi40MzcxIDkuNTA3LDAuNDM1OSAxNC4xMTQsMi4yNjAxIDEuNjg0LDAuNjY2IDIuOTAzLDQuNTIxMSA0LjE3OCw3LjYwNTEgMy41MDcsOC40ODQ4IDcuMTg5LDE5LjE4MTkgOC44MjcsMjcuMjc4OSAwLjM3LDEuODQ1IDEuMzc4LDUuODY1IDEuMTUyLDcuNTA3IC0wLjQwMywyLjk0IC00LjM5Miw1LjEyIC02LjQyMSw2LjkzOCAtMy43MzgsMy4zNTggLTYuMDkyLDYuMzEzIC05Ljk5MSw5LjQ1MyAtMS41ODEsLTIuMzM0IC00Ljk3NCwtMy45MDIgLTYuMjY3LC01LjggeiBtIC04OC4zMTc5LDgxLjk2OCBjIC00LjQwNDMsLTQuODQ2IC0zLjQ4MjQsLTEzLjkyNiAtMi45NDkyLC0yMC4zODYgNy45NjA5LDUuMDA4IDE4LjUyNzMsLTAuMzk2IDE4LjQyNzcsLTguOTE0IDMuODAwOCwwLjEwMSAxLjQxOTksNC43NDcgMC43MzI0LDcuNzQgLTIuMjQ2OCw5Ljc3NiAzLjc4NTIsMjAuMzk3IDAuMjczNSwyOS4zMzcgLTYuODE4NCwtMC41MTcgLTEyLjQyLC0zLjMwMiAtMTYuNDg0NCwtNy43NzcgeiBtIDMxLjUxMzcsMjguMTI2IGMgLTkuOTcwNywtMi44MjYgLTIyLjc0OTMsLTEwLjA3MSAtMjYuODQ2NSwtMTkuMDI4IDMuMTcyNiwwLjQ2MSA1LjM3NSwyLjA2MSA4LjUwNDcsMi4yNTkgMS4xODI4LDAuMDc3IDIuNzMyNCwtMC40OTYgNC4wOTE4LC0wLjE1OCAyLjcwOSwwLjY3MiA0Ljk5NTMsNi43NDYgNy4wMzksOS4wMDYgMS45OTIyLDIuMjA3IDQuMzg2NywzLjE1IDYuMDI1NCw1LjE2MiAxLjA1MjgsMC41MDggMi42MDk0LDAuNDczIDIuNjY5MiwyLjA1NCAtMC40NTYzLDAuNDg4IC0wLjkzNjgsMC44NiAtMS40ODM2LDAuNzA1IHogbSA1MS45MDMyLC0yLjY1OCBjIC0xMC4zNDksNS44MzkgLTI3Ljg2NjEsMTAuMjMxIC0zOC44NzQ3LDQuNzQzIC04Ljg4MjgsLTQuNDI5IC0yMC44ODk5LC0xMS43NTcgLTI0Ljk4MzYsLTIxLjA0MyAzLjgyNDIsLTguOTYxIC0xLjEzMjgsLTE3LjE3MiAtMS40NDkyLC0yNi4yNyAtMC4xNjgsLTQuODQxIDIuMjc5MywtOS4wNjcgMi40NjY4LC0xNC4zMzcgLTEuMzA4NiwtMi4xNTkgLTUuMzA2NywtMi40MjUgLTguMDc0MywtMi4yNzcgLTAuOTMxNiw0LjY2MiAtMi41NjI1LDkuOTAyIC03LjM2MzIsMTAuNDI4IC02Ljc5MywwLjc0MyAtMTEuNzU5OCwtNC44NzkgLTEyLjA2ODQsLTEwLjc1NCAtMC4zNjUyLC02LjkwOSA1LjMwNjYsLTE4LjM2IDEzLjM0NTcsLTE3LjU2NSAzLjEwNTUsMC4zMDcgMy44Njg0LDMuNDIgNy4yNTIsMy4zODggMS44MzM5LC0zLjY1OSAtMi44Mjg5LC00LjgwOCAtMy4zMDg2LC03LjQyNSAtMC4xMjUsLTAuNjc2IDAuMzg2NywtMy4zMTggMC42ODQzLC00LjU1NyAxLjQ2MDIsLTYuMDMzIDQuNzE1MywtMTMuODQxIDcuOTE5MiwtMTguNDM0IDQuMDY2NCwtNS44MjYgMTIuMDU1NSwtNi43MDQgMjAuNjUwNCwtNy4yNzUgMS41MzUxLDMuMzA3IDcuMTkwMiwzLjAzNSAxMC44NzUsMi4xNyAtNC40MTYsMS43NDkgLTguNTIxNSw1Ljk4OSAtMTEuOTIzOSw5Ljc0MiAtMy45MDgyLDQuMzA2IC03Ljg2NzEsOC45MjUgLTguMDY3MSwxNC41NTMgNy4zODU1LC0xMC4yNDYgMTMuNDg3MSwtMTkuMTk0IDI2LjkxNjgsLTIzLjcwMSAxMC4xNjE4LC0zLjQwOCAyMi4wMjk4LDEuNTYyIDI5LjgzNzgsNy4wNDUgMy4yNCwyLjI3OSA1LjE3NCw1Ljg5NSA3LjQ3Nyw5LjIwNSA4LjYxNywxMi4zOTUgMTIuNjM4LDMwLjA4NyAxMS43NTQsNDcuMjM1IC0wLjM2NCw3LjA3MiAtMC4zNDgsMTQuMTIgLTIuNzIxLDE4Ljg3OCAtMi40OCw0Ljk3NSAtMTAuODY4LDkuNDI2IC0xNS43NzgsNC45MjYgLTAuOTEsNC44MzggNC4wODMsNy44MyA5Ljk0OCw2LjA4OSAtNC4xODIsNS4zOTcgLTguNTcxLDExLjg4MiAtMTQuNTE1LDE1LjIzNiB6IE0gMTQ0LjQ0NCw3Ny4xMTY4IGMgOC4wODcsNC4wMjAzIDIzLjE5NywxMC44MjExIDI4LjI2NywtMC4wMTQ4IDEuODcxLC0zLjk5NDIgNC4wNjYsLTEwLjc0NjEgNS4wMzUsLTE0Ljg2OTIgMS4zNjksLTUuODE2OCAtMS40ODQsLTE4LjA0MyAtNy40NjMsLTE5Ljk5NDkgLTUuMjgxLC0xLjcyMzggLTExLjQ0MywtMS42MTg4IC0xNy44MDQsLTAuMzQxIC0wLjc0OSwwLjYyMyAtMS41ODMsMS43MDkgLTIuMTY2LDIuODQxIC00LjU0MiwwLjE3NjIgLTguNzk1LC0wLjI0MzggLTEyLjM4MywtMi4xMTA5IDAuMzQsLTMuMzU5IC0xLjkzMiwtMy44OTgxIC00LjA2MiwtNC41ODk5IC0xLjU3OSwtNi4yNjA5IDMuMTU5LC0xNC40MzcxIDIuMDI1LC0yMC4xNDYxIC0wLjgwOSwtNC4wNjcyIC01LjgxMywtNC42OTYxIC05LjQ5MSwtNS40NTcgLTAuMTIsLTIuMjYwMiAwLjE2MSwtNC4xNDY4OSAwLjQxMiwtNi4wNTkgLTAuODQxLC0zLjA5ODgzIC00LjYxMywtNC44NjI4OSAtOC4xODcsLTUuMjk0OTIgLTExLjc1OSwtMS40MTQwNjQgLTI5LjYxMzMsLTIuMDQ5MjIxIC00MC45MjM5LDIuMDE3OTcgLTMuMTU2Miw3Ljc0MTc1IC01LjY0MjYsMTcuMTU3ODUgLTguMjcxNSwyNS45OTgwNSAtMTEuMDMxMiwtMS4xNzgxIC0xOS45NTMxLDQuNzU5OCAtMjguMzY0LDguNjUgLTIuOTEyMSwxLjM1IC02Ljk0MDYsMi4wOTM3IC04LjAyODUsNC40MTE3IC0xLjA1NDcsMi4yNDQyIC0wLjYyMzEsNi41NDUzIC0wLjg4NDgsMTAuNjA4MiAtMC42NjYsMTAuMzc3IC0xLjIzNjMsMjAuMzg2IC0zLjk3NjYsMzEuMDExIC0xLjIzMDQsNC43Njc5IC0zLjM3NSw4Ljk3NSAtNC44NzExLDEzLjU2OTEgLTEuMzgyOCw0LjI1NzkgLTMuNzk4OCw5LjUxOTkgLTQuNDI4OSwxMy43NjU5IC0wLjkzNDMsNi4yOTMgNC45OTE0LDYuNjQzIDguNzgwNSw5LjM3IDUuODU3NCw0LjIxNyAxMC40NTUxLDYuNTQ5IDE2Ljc5ODgsMTAuMzU1IDEuODc4OSwxLjEyNyA3LjU0NSwzLjk4IDguMTg5NSw1LjI5NCAxLjI4MTIsMi42MDUgLTIuMTk5Miw2LjI3OCAtMy4xMjk3LDguMzIgLTEuNDcxOSwzLjIyOSAtMi4yMzk1LDUuOTcyIC0yLjQ1MDQsOS4xNTggLTUuMzIxNSwwLjg0MSAtOS4zNTU1LDQuMDA4IC0xMS43OTIyLDcuNTc5IC00LjAzMDgsNS45MSAtNi44MjYyLDE2Ljg0NCAtMy4zMzg3LDI1LjE2MSAwLjI3MzUsMC42NTUgMS42Mzc1LDEuOTQzIDEuODM4NywyLjk0OSAwLjM5NjksMS45ODEgLTAuNzQ2OSw0LjYxNSAtMC44MTgsNi43MjIgLTAuMzY2NCwxMC44MSAxLjgyOSwyMC4xMjQgOS4xMDYzLDIzLjM4NCAyLjk1NDMsMTEuNzY5IDEzLjUyODEsMTUuNjgyIDIzLjQ5MDIsMjEuNTMxIDMuNzIzOSwyLjE4NiA3LjgyODksMy41ODMgMTIuMDY4NCw1LjE0MyAxNS4yMDgyLDUuNTk3IDM4LjU0MTksNC41NDMgNTEuMTYzOSwtNS4wMDMgNS4zNTIsLTQuMDQ4IDEzLjkwNywtMTIuNTk1IDE2Ljk2NywtMTguNzgzIDguMDgyLC0xNi4zMzcgNy41MDgsLTQzLjY0IDEuODU1LC02My41MTMgLTAuNzYsLTIuNjY4IC0xLjg2MiwtNi41OSAtMy40MDEsLTkuNzk1IC0xLjA3MywtMi4yMzggLTQuNDA4LC02LjcxNiAtNC4wMDMsLTguNjkyIDAuNDE3LC0yLjA0MyA3LjYwNCwtNy41IDkuMTQ1LC04Ljk4NiAyLjc3NSwtMi42NzcgOC4wNDcsLTYuMjMgOC40NzQsLTkuNjA4IDAuNDU5LC0zLjU5NSAtMS41ODQsLTguNTEzIC0yLjYxOSwtMTEuOTgyIC0zLjQ2LC0xMS41NzY5IC02LjgzNiwtMjIuMjc4MSAtMTAuNzU5LC0zMi41OTkyIiBzdHlsZT0iZmlsbDojMjMxZjIwO2ZpbGwtb3BhY2l0eToxO2ZpbGwtcnVsZTpldmVub2RkO3N0cm9rZTpub25lIiBpZD0icGF0aDEzMCIgaW5rc2NhcGU6Y29ubmVjdG9yLWN1cnZhdHVyZT0iMCIvPjxwYXRoIGQ9Im0gOTAuNDkxLDE1Ny4yNTUgYyAwLjQzODcsMC41ODQgMi44NTA4LDEuNDcxIDYuMjI1OCwtMC4xNTQgMCwwIC00LC0wLjY2NyAtMy42NjcyLC03LjMzNiBsIC0xLjY2NjgsMC4zMzQgYyAwLDAgLTEuNzIyNiw2LjA0NyAtMC44OTE4LDcuMTU2IiBzdHlsZT0iZmlsbDojZjdlNGNkO2ZpbGwtb3BhY2l0eToxO2ZpbGwtcnVsZTpldmVub2RkO3N0cm9rZTpub25lIiBpZD0icGF0aDEzMiIgaW5rc2NhcGU6Y29ubmVjdG9yLWN1cnZhdHVyZT0iMCIvPjxwYXRoIGQ9Im0gMTE5LjcxNyw5OS45MzQgYyAwLC0xLjAxMjEgLTAuODIxLC0xLjgzMjggLTEuODM0LC0xLjgzMjggLTEuMDEyLDAgLTEuODMzLDAuODIwNyAtMS44MzMsMS44MzI4IDAsMS4wMTIgMC44MjEsMS44MzQgMS44MzMsMS44MzQgMS4wMTMsMCAxLjgzNCwtMC44MjIgMS44MzQsLTEuODM0IiBzdHlsZT0iZmlsbDojMWQxOTE5O2ZpbGwtb3BhY2l0eToxO2ZpbGwtcnVsZTpldmVub2RkO3N0cm9rZTpub25lIiBpZD0icGF0aDEzNCIgaW5rc2NhcGU6Y29ubmVjdG9yLWN1cnZhdHVyZT0iMCIvPjxwYXRoIGQ9Im0gMTIxLjU1LDkxLjQzNCBjIDAsLTEuMDEyMSAtMC44MjEsLTEuODMyOCAtMS44MzQsLTEuODMyOCAtMS4wMTIsMCAtMS44MzMsMC44MjA3IC0xLjgzMywxLjgzMjggMCwxLjAxMjEgMC44MjEsMS44MzQgMS44MzMsMS44MzQgMS4wMTMsMCAxLjgzNCwtMC44MjE5IDEuODM0LC0xLjgzNCIgc3R5bGU9ImZpbGw6IzFkMTkxOTtmaWxsLW9wYWNpdHk6MTtmaWxsLXJ1bGU6ZXZlbm9kZDtzdHJva2U6bm9uZSIgaWQ9InBhdGgxMzYiIGlua3NjYXBlOmNvbm5lY3Rvci1jdXJ2YXR1cmU9IjAiLz48L2c+PC9nPjwvc3ZnPg==" parent="1" vertex="1">
                    <mxGeometry x="700" y="270" width="81.13" height="112" as="geometry"/>
                </mxCell>
                <mxCell id="11" value="&lt;meta http-equiv=&quot;content-type&quot; content=&quot;text/html; charset=utf-8&quot;&gt;&lt;img src=&quot;https://github.com/gshipley/wild-west-kubernetes/raw/master/src/main/resources/static/assets/sceenshot.png&quot;&gt;" style="text;whiteSpace=wrap;html=1;" parent="1" vertex="1">
                    <mxGeometry x="81.03999999999999" y="282.5" width="140" height="140" as="geometry"/>
                </mxCell>
            </root>
        </mxGraphModel>
    </diagram>
</mxfile>